<svg id="Camada_1" data-name="Camada 1" xmlns="http://www.w3.org/2000/svg" viewBox="0 0 643.57 904.97"><defs><style>.cls-1,.cls-2{fill:#002d4c;}.cls-2{fill-rule:evenodd;}</style>
</defs><path class="cls-2" d="M984.33,869.13c-5.58.21-11.15.42-17.45,2.5A51.89,51.89,0,0,0,948,883c-5.56,5.29-9.66,11.94-13.61,19.41s-7.78,15.74-11.5,24.62-7.35,18.37-9.77,25.15-3.63,10.84-3.81,15.69a31.57,31.57,0,0,0,3.79,16.36A41.17,41.17,0,0,0,928,999.82c6.27,3.64,13.39,4.8,19.48,4.83a28.87,28.87,0,0,0,16.5-4.43c5.35-3.35,11-8.94,13.55-13.13s2-7,.8-9.3-3.11-4.16-7.8-8.7-12.16-11.76-16.77-16.4-6.36-6.7-7.28-9.81a16.72,16.72,0,0,1,.48-10.88,15.4,15.4,0,0,1,8.47-8.06,15,15,0,0,1,12,.47c3.85,1.87,7.18,5.55,9.91,8.45s4.88,5,7,7.12c2.14-2.11,4.29-4.22,7-7.12s6.06-6.58,9.91-8.45a15,15,0,0,1,12-.47,15.39,15.39,0,0,1,8.46,8.06,16.66,16.66,0,0,1,.49,10.88c-.93,3.11-2.67,5.17-7.28,9.81s-12.09,11.87-16.78,16.4-6.58,6.38-7.8,8.7-1.74,5.11.81,9.3,8.2,9.78,13.55,13.13a28.87,28.87,0,0,0,16.5,4.43,39.42,39.42,0,0,0,19.48-4.83,41.32,41.32,0,0,0,14.84-15.63,31.77,31.77,0,0,0,3.79-16.36c-.19-4.85-1.4-8.91-3.81-15.69s-6-16.27-9.77-25.15-7.54-17.16-11.5-24.62-8.06-14.12-13.61-19.41a51.93,51.93,0,0,0-18.87-11.33C995.48,869.55,989.9,869.34,984.33,869.13Z" transform="translate(-662.54 -99.68)"/></svg>