<svg id="Camada_1" data-name="Camada 1" xmlns="http://www.w3.org/2000/svg" 
viewBox="0 0 643.57 904.97"><defs>
<style>.cls-1,.cls-2{fill:#002d4c;}.cls-2{fill-rule:evenodd;}</style>
</defs><path class="cls-2" d="M737.57,527.58c-5.58.21-11.15.42-17.44,2.5a52,52,0,0,0-18.87,11.32c-5.56,5.3-9.65,12-13.61,19.41s-7.78,15.74-11.5,24.63-7.35,18.37-9.77,25.15-3.63,10.84-3.81,15.69a31.57,31.57,0,0,0,3.79,16.36,41.32,41.32,0,0,0,14.84,15.63,39.27,39.27,0,0,0,19.48,4.82,28.86,28.86,0,0,0,16.5-4.42c5.35-3.35,11-8.94,13.55-13.13s2-7,.8-9.3-3.11-4.16-7.8-8.7-12.16-11.76-16.77-16.4-6.35-6.7-7.28-9.81a16.66,16.66,0,0,1,.49-10.88,15.32,15.32,0,0,1,8.46-8.06,15,15,0,0,1,12,.46c3.86,1.88,7.18,5.56,9.91,8.46s4.88,5,7,7.12c2.14-2.11,4.29-4.23,7-7.12s6.06-6.58,9.92-8.46a15,15,0,0,1,12-.46,15.32,15.32,0,0,1,8.46,8.06,16.66,16.66,0,0,1,.49,10.88c-.93,3.11-2.67,5.17-7.28,9.81s-12.09,11.87-16.77,16.4-6.59,6.38-7.8,8.7-1.75,5.11.8,9.3,8.2,9.78,13.55,13.13a28.86,28.86,0,0,0,16.5,4.42,39.27,39.27,0,0,0,19.48-4.82,41.32,41.32,0,0,0,14.84-15.63,31.67,31.67,0,0,0,3.79-16.36c-.18-4.85-1.39-8.91-3.81-15.69s-6-16.27-9.77-25.15-7.54-17.16-11.5-24.63-8-14.11-13.61-19.41A52,52,0,0,0,755,530.08C748.72,528,743.14,527.79,737.57,527.58Z" transform="translate(-662.54 -99.68)"/><path class="cls-1" d="M883.9,630.33l-3-8.75H857.79l-3,8.75a3.54,3.54,0,0,1-3.37,2.41h-6a2.18,2.18,0,0,1-2.09-2.89l18.4-51a3.59,3.59,0,0,1,3.37-2.33h8.36a3.67,3.67,0,0,1,3.37,2.33l18.32,51a2.17,2.17,0,0,1-2,2.89h-6A3.54,3.54,0,0,1,883.9,630.33Zm-6.27-18.47-8.27-24.34-8.27,24.34Z" transform="translate(-662.54 -99.68)"/><path class="cls-1" d="M939.16,608v21.85a2.87,2.87,0,0,1-2.89,2.89h-4.42a2.88,2.88,0,0,1-2.89-2.89V610.09c0-5.22-2.17-9.16-8-9.16-6,0-8.68,4.42-8.68,9.16v19.76a2.86,2.86,0,0,1-2.81,2.89H905a2.86,2.86,0,0,1-2.81-2.89V594.91A2.86,2.86,0,0,1,905,592h4.5a2.86,2.86,0,0,1,2.81,2.89V597c2.25-3.3,5.95-6,11.89-6C934.5,591.05,939.16,599.33,939.16,608Z" transform="translate(-662.54 -99.68)"/><path class="cls-1" d="M948.48,580.61a5.42,5.42,0,1,1,5.38,5.46A5.45,5.45,0,0,1,948.48,580.61Zm.32,49.24V594.91a2.88,2.88,0,0,1,2.89-2.89h4.42a2.87,2.87,0,0,1,2.89,2.89v34.94a2.87,2.87,0,0,1-2.89,2.89h-4.42A2.88,2.88,0,0,1,948.8,629.85Z" transform="translate(-662.54 -99.68)"/><path class="cls-1" d="M1027.36,607.28v22.57a2.86,2.86,0,0,1-2.81,2.89h-4.5a2.87,2.87,0,0,1-2.89-2.89V609.37c0-5.06-2.09-8.44-6.83-8.44s-7.23,3.78-7.23,8.44v20.48a2.87,2.87,0,0,1-2.89,2.89h-4.42a2.87,2.87,0,0,1-2.89-2.89V609.37c0-5.06-2.09-8.44-6.83-8.44s-7.23,3.78-7.23,8.44v20.48a2.87,2.87,0,0,1-2.89,2.89h-4.42a2.87,2.87,0,0,1-2.89-2.89V594.91a2.87,2.87,0,0,1,2.89-2.89H976a2.87,2.87,0,0,1,2.89,2.89v1.44c2.09-3,5.38-5.3,10.77-5.3s9.15,2.57,11.24,6.35a14.62,14.62,0,0,1,12.29-6.35C1022.54,591.05,1027.36,598.6,1027.36,607.28Z" transform="translate(-662.54 -99.68)"/><path class="cls-1" d="M1070.33,592h4.42a2.87,2.87,0,0,1,2.89,2.89v34.94a2.87,2.87,0,0,1-2.89,2.89h-4.42a2.88,2.88,0,0,1-2.89-2.89v-1.93c-2.57,3.38-6.67,5.78-13,5.78-12.61,0-19.84-10.68-19.84-21.28s7.23-21.37,19.84-21.37c6.34,0,10.44,2.41,13,5.78v-1.92A2.88,2.88,0,0,1,1070.33,592Zm-3.29,20.4c0-6.35-4-11.57-11-11.57s-11,5.3-11,11.57,4,11.57,11,11.57S1067,618.68,1067,612.42Z" transform="translate(-662.54 -99.68)"/><path class="cls-1" d="M1090.17,576.51h4.5a2.86,2.86,0,0,1,2.81,2.89v50.45a2.86,2.86,0,0,1-2.81,2.89h-4.5a2.88,2.88,0,0,1-2.89-2.89V579.4A2.89,2.89,0,0,1,1090.17,576.51Z" transform="translate(-662.54 -99.68)"/><path class="cls-1" d="M1168.81,616.35c0,8.84-6.18,17.35-21,17.35-9.24,0-17.68-3.29-21.37-10.44a2.82,2.82,0,0,1,1.69-4l5.06-1.61a2.79,2.79,0,0,1,3.29,1.2c1.61,2.74,5,5.39,11.24,5.39,5.63,0,10.13-2.17,10.13-7.07,0-5.54-6.35-5.95-15.27-8.2-11.32-2.81-15.1-8.43-15.1-16.22,0-10.61,8.12-17.27,19.84-17.27,8.12,0,14.78,3.53,18,10a2.89,2.89,0,0,1-1.93,4l-5.06,1.2a2.79,2.79,0,0,1-3.13-1.37c-1.29-2.32-4-4.33-8.44-4.33-4.58,0-8.51,2.41-8.51,7,0,6.26,7.15,7.23,12.37,8.43C1164,603.5,1168.81,607.36,1168.81,616.35Z" transform="translate(-662.54 -99.68)"/><path class="cls-1" d="M1209.78,592h4.41a2.88,2.88,0,0,1,2.9,2.89v34.94a2.88,2.88,0,0,1-2.9,2.89h-4.41a2.88,2.88,0,0,1-2.9-2.89v-1.93c-2.57,3.38-6.66,5.78-13,5.78-12.61,0-19.84-10.68-19.84-21.28s7.23-21.37,19.84-21.37c6.35,0,10.44,2.41,13,5.78v-1.92A2.88,2.88,0,0,1,1209.78,592Zm-3.3,20.4c0-6.35-4-11.57-11-11.57s-11,5.3-11,11.57,4,11.57,11,11.57S1206.48,618.68,1206.48,612.42Z" transform="translate(-662.54 -99.68)"/><path class="cls-1" d="M1254.52,592h5.3a2.13,2.13,0,0,1,2,2.89l-13.18,35.5a3.54,3.54,0,0,1-3.29,2.33h-6.27a3.55,3.55,0,0,1-3.29-2.33l-13.17-35.5a2.12,2.12,0,0,1,2-2.89h5.3a3.68,3.68,0,0,1,3.45,2.49l8.84,26.34,8.83-26.34A3.7,3.7,0,0,1,1254.52,592Z" transform="translate(-662.54 -99.68)"/><path class="cls-1" d="M1306.09,613.54a2.85,2.85,0,0,1-2.81,2.81h-27.56c1.45,5.39,6,8.28,11.57,8.28a12.37,12.37,0,0,0,8-2.89,2,2,0,0,1,2.49-.24l4.58,2.73a2.16,2.16,0,0,1,.4,3.37,21.87,21.87,0,0,1-15.5,6.1c-13.49,0-22.41-8.91-22.41-21.28,0-12.77,9.56-21.37,20.8-21.37C1297.25,591.05,1306.65,599.16,1306.09,613.54ZM1296,608.48c-1-5.38-4.66-8.35-10.13-8.35-5,0-8.91,3.13-10.12,8.35Z" transform="translate(-662.54 -99.68)"/></svg>