<svg xmlns="http://www.w3.org/2000/svg" data-name="Camada 1" width="199" height="191.06451416015625" style=""><rect id="backgroundrect" width="100%" height="100%" x="0" y="0" fill="none" stroke="none" class="" style=""/><defs><style>.cls-1,.cls-2{fill:#212529;}.cls-2{fill-rule:evenodd;}</style></defs><g class="currentLayer" style=""><title>Layer 1</title><path class="cls-2" d="M98.32504493630483,4.933844694715479 c-7.145686069087834,0.28496842644299275 -14.278566249162964,0.5699368528859855 -22.346276327165356,3.392481267178482 A66.44975808691177,70.41434118155657 0 0 0 51.80125015315765,23.755330765021704 c-7.120074291062429,7.178490361349668 -12.370488786270336,16.20249053204443 -17.428814946287705,26.339224558373733 s-9.96298165188232,21.359062058155725 -14.726772364607541,33.409155519173694 s-9.412328424336124,24.927952351227486 -12.511353565410058,34.12836154781553 s-4.648537711610902,14.709798774485899 -4.8790437138395415,21.291212432812152 a40.42819161310088,42.84025344192987 0 0 0 4.853431935814138,22.200397412415985 A52.721845065295,55.867381507895246 0 0 0 26.189472127753234,182.27919541773787 c8.029292410964285,4.93945272501187 17.14708538800826,6.513564032982686 24.945871796743905,6.554273808188827 a36.97060157967128,39.176373673377114 0 0 0 21.129716870958646,-6.01147680544027 c6.851150621795681,-4.545924898019166 14.08647791397243,-12.131513011430252 17.351979612211494,-17.81731161522139 s2.561177802540442,-9.49894754809975 1.024471121016177,-12.620030313903955 s-3.9826314829503873,-5.645088828584995 -9.988593429907723,-11.805834809781116 s-15.571961039445888,-15.958231880807578 -21.475475874301605,-22.25467711269084 s-8.144545412078605,-9.091849796038332 -9.32268720124721,-13.312096492408363 a21.411446429238094,22.688914714889687 0 0 1 0.6146826726097064,-14.764078474760755 a19.721069079561403,20.89768460581945 0 0 1 10.846587993758773,-10.937359605383426 a19.208833519053314,20.354887603070893 0 0 1 15.367066815242652,0.6377864782295547 c4.930267269890351,2.5375759878495048 9.194628311120185,7.53130841313623 12.690636011587891,11.466586683063268 s6.249273838198678,6.784962534356964 8.964122308891547,9.661786648924318 c2.7404602487182728,-2.863254189498639 5.493726386449249,-5.726508378997278 8.964122308891547,-9.661786648924318 s7.760368741697539,-8.929010695213764 12.690636011587891,-11.466586683063268 a19.208833519053314,20.354887603070893 0 0 1 15.367066815242652,-0.6377864782295547 a19.708263190548703,20.884114680750738 0 0 1 10.83378210474607,10.937359605383426 a21.334611095161883,22.607495164477402 0 0 1 0.6274885616224086,14.764078474760755 c-1.1909476781813055,4.220246696370032 -3.4191723663914897,7.015651260525101 -9.32268720124721,13.312096492408363 s-15.48231981635697,16.107501056563432 -21.48828176331431,22.25467711269084 s-8.426274970358055,8.657612193839485 -9.988593429907723,11.805834809781116 s-2.228224688210185,6.934231710112818 1.037277010028879,12.620030313903955 s10.50082899041581,13.27138671720222 17.351979612211494,17.81731161522139 a36.97060157967128,39.176373673377114 0 0 0 21.129716870958646,6.01147680544027 a50.48081448807211,53.49264462087031 0 0 0 24.945871796743905,-6.554273808188827 a52.91393340048553,56.07093038392596 0 0 0 19.003939294850078,-21.20979288239987 a40.68430939335492,43.111651943304146 0 0 0 4.853431935814138,-22.200397412415985 c-0.24331189124134228,-6.581413658326254 -1.7928244617783091,-12.09080323622411 -4.8790437138395415,-21.291212432812152 s-7.683533407621326,-22.078268086797557 -12.511353565410058,-34.12836154781553 s-9.655640315577465,-23.2859914179131 -14.726772364607541,-33.409155519173694 s-10.32154654423798,-19.160734197024066 -17.428814946287705,-26.339224558373733 a66.50098164296257,70.46862088183143 0 0 0 -24.16471256696907,-15.37472510285288 C112.60361118546777,5.503781547601406 105.45792511637987,5.218813121158519 98.32504493630483,4.933844694715479 z" id="svg_23" fill="#000000" fill-opacity="1"/></g></svg>